<svg version="1.1" xmlns="http://www.w3.org/2000/svg" viewBox="0 0 1390 1516.5" width="1390" height="1516.5">
  <!-- svg-source:excalidraw -->
  
  <defs>
    <style class="style-fonts">
      @font-face {
        font-family: "Virgil";
        src: url("https://excalidraw.com/Virgil.woff2");
      }
      @font-face {
        font-family: "Cascadia";
        src: url("https://excalidraw.com/Cascadia.woff2");
      }
    </style>
  </defs>
  <rect x="0" y="0" width="1390" height="1516.5" fill="#ffffff"></rect><g stroke-linecap="round" transform="translate(10 45) rotate(0 318.5 224.5)"><path d="M0.47 -0.05 C131.35 -0.56, 263.58 0.17, 637.62 -0.73 M-0.24 0.12 C180.31 2.15, 360.76 2.51, 636.85 -0.33 M637.21 0.57 C635.9 148.05, 636.45 294.22, 636.91 449.71 M637.1 -0.28 C639.16 106.76, 639.4 214.43, 637.32 449.14 M636.26 449.47 C497.68 448.23, 359.04 448.26, -0.44 449.52 M637.3 449.14 C399.44 448.99, 160.85 448.74, 0.14 449.09 M0.81 448.28 C-0.77 269.15, -2.21 90.46, -0.28 0.97 M-0.24 449.18 C-0.07 352.96, -0.17 256.87, -0.3 -0.19" stroke="#000000" stroke-width="1" fill="none"></path></g><g stroke-linecap="round" transform="translate(13 48) rotate(0 315.5 20)"><path d="M0.39 0.26 C133.7 -0.19, 265.7 0.83, 631.48 0.01 M-0.01 -0.23 C133.02 0.61, 265.64 0.94, 631.25 0.05 M632.81 1.79 C631.19 13.59, 629.98 31.78, 632.21 40.57 M631.1 -0.12 C632.24 9.47, 630.82 19.01, 631.14 40.66 M631.57 39.27 C409.76 41.4, 187.42 41.23, -0.44 40.72 M630.73 40.08 C437.8 39.32, 243.9 38.99, 0.32 40.13 M0.59 41.12 C1.27 26.41, -1.49 9.95, 0.4 0.75 M0.96 39.81 C-0.77 30.72, -0.92 19.68, -0.61 0.45" stroke="#000000" stroke-width="1" fill="none"></path></g><g transform="translate(28 55) rotate(0 74 12.5)"><text x="0" y="18" font-family="Virgil, Segoe UI Emoji" font-size="20px" fill="#000000" text-anchor="start" style="white-space: pre;" direction="ltr">Trading Wheels</text></g><g stroke-linecap="round" transform="translate(522 52) rotate(0 59 13.5)"><path d="M1.21 1.68 C31.57 0.9, 66.04 1.24, 119.47 1.93 M-0.56 -0.81 C26.28 -1.28, 53.06 -1.21, 118.2 -0.08 M116.69 1.14 C116.05 6.97, 116.63 14.09, 117.99 25.67 M117.21 0.58 C117.97 5.53, 118.57 12.35, 117.05 26.8 M116.43 25.12 C93.66 26.54, 67.92 25.98, 1.16 27.87 M117.97 26.09 C76.77 26.79, 36.57 26.43, 0.18 27.81 M-1.29 25.41 C-1.64 20.04, -1.2 12.81, 0.64 0.06 M0.27 27.86 C0.96 20.16, -0.14 11.93, -0.36 -0.96" stroke="#000000" stroke-width="1" fill="none"></path></g><g transform="translate(527 55) rotate(0 49 12.5)"><text x="0" y="18" font-family="Virgil, Segoe UI Emoji" font-size="20px" fill="#000000" text-anchor="start" style="white-space: pre;" direction="ltr">User Info</text></g><g transform="translate(15 10) rotate(0 51 12.5)"><text x="0" y="18" font-family="Virgil, Segoe UI Emoji" font-size="20px" fill="#000000" text-anchor="start" style="white-space: pre;" direction="ltr">Home page</text></g><g stroke-linecap="round" transform="translate(334 129) rotate(0 138 156.5)"><path d="M0.99 -0.96 C55.68 -0.43, 115.27 -0.41, 275.57 -1.43 M0.45 0.73 C66.02 -1.83, 130.93 -2.68, 276.62 0.41 M276.29 1.25 C273.02 82.07, 272.59 162.22, 276.03 314.38 M276.46 0.5 C278.81 103.94, 278.78 208.47, 276.54 313.02 M274.71 311.74 C172.48 312.53, 67.02 313.55, -1.32 313.53 M276.12 313.72 C186.31 311.54, 97.33 312, 0.64 312.41 M-0.8 312.12 C-0.24 230.31, -1.12 149.72, -0.51 -1.27 M-0.47 312.42 C-1.94 199.05, -2.8 84.95, -0.4 -0.66" stroke="#000000" stroke-width="1" fill="none"></path></g><g transform="translate(408 251) rotate(0 35.5 12.5)"><text x="0" y="18" font-family="Virgil, Segoe UI Emoji" font-size="20px" fill="#000000" text-anchor="start" style="white-space: pre;" direction="ltr">Images</text></g><g transform="translate(55 164) rotate(0 120.5 12.5)"><text x="0" y="18" font-family="Virgil, Segoe UI Emoji" font-size="20px" fill="#000000" text-anchor="start" style="white-space: pre;" direction="ltr">Description of the app...</text></g><g stroke-linecap="round" transform="translate(189 52) rotate(0 155.5 15)"><path d="M-0.22 -0.37 C82.7 2.75, 163.26 2.55, 311.62 -0.43 M-0.23 0.06 C123.12 0.26, 247.08 0.08, 310.94 0.23 M312.9 0.85 C312.91 9.14, 309.48 18.33, 312.28 28.61 M311.51 0.3 C310.26 10.6, 310.33 22.68, 310.52 29.32 M311.71 29.24 C214.29 31.56, 120.75 30.66, -0.36 29.7 M311.39 29.72 C241.87 29.76, 172.28 28.42, -0.52 29.97 M0.21 29.2 C0.78 17.77, 1.44 7.03, -1.61 -0.76 M0.28 30.87 C0.78 20.6, 0.5 12.38, 0.06 0.15" stroke="#000000" stroke-width="1" fill="none"></path></g><g transform="translate(220 57) rotate(0 120 12.5)"><text x="0" y="18" font-family="Virgil, Segoe UI Emoji" font-size="20px" fill="#000000" text-anchor="start" style="white-space: pre;" direction="ltr">Home | Portfolio | Trade</text></g><g stroke-linecap="round" transform="translate(14.5 558.5) rotate(0 318.5 224.5)"><path d="M-0.63 -0.51 C182.02 0.5, 365.72 1.42, 637.29 -0.73 M0.37 -0.25 C227.82 -1.68, 454.78 -1.52, 637.24 0.27 M637.65 -0.85 C638.68 155.29, 638.64 312.14, 636.7 448.17 M636.52 -0.25 C636.3 157.2, 635.66 313.45, 637.26 449.3 M636.8 449.22 C421.33 448.28, 204.61 448.25, 0.55 449.3 M637.05 448.92 C504.45 448.77, 371.58 448.77, -0.2 448.93 M-0.73 448.22 C2.05 295.21, 1.8 142.71, 0.33 0.32 M0.07 449.13 C2.54 324.18, 2.3 199.43, -0.47 0.48" stroke="#000000" stroke-width="1" fill="none"></path></g><g stroke-linecap="round" transform="translate(17.5 561.5) rotate(0 315.5 20)"><path d="M-0.51 -0.5 C214.1 2.7, 429.32 2.29, 630.27 0.46 M-0.25 0.31 C127.32 -2.6, 254.89 -2.11, 631.27 0.19 M629.25 0.69 C629.34 15.08, 631.16 28.34, 629.28 40.98 M630.48 0.74 C632.23 9.48, 631.17 20.63, 631.62 40.39 M631.22 40.44 C477.58 39.19, 323.41 39.91, 0.3 39.27 M630.92 40.25 C414.03 40.5, 196.68 40.13, -0.07 40.17 M-1.61 41.29 C-0.79 31.38, 1.28 21.9, 0.65 -0.44 M0.28 40.86 C-0.33 32.26, -0.23 22.82, 0.99 0.58" stroke="#000000" stroke-width="1" fill="none"></path></g><g transform="translate(32.5 568.5) rotate(0 74 12.5)"><text x="0" y="18" font-family="Virgil, Segoe UI Emoji" font-size="20px" fill="#000000" text-anchor="start" style="white-space: pre;" direction="ltr">Trading Wheels</text></g><g stroke-linecap="round" transform="translate(526.5 565.5) rotate(0 59 13.5)"><path d="M-0.53 1.75 C27.82 1.46, 50.28 1.88, 116.04 1.24 M-0.25 -0.61 C46.57 -0.31, 93.53 -0.45, 118.62 -0.64 M116.6 0.61 C118.18 9.29, 116.05 20.8, 117.02 28.72 M118.88 -0.57 C117.69 5.95, 118.47 11.22, 117.44 26.43 M119.82 26.58 C87.35 29.03, 53.93 25.81, 0.89 26.52 M118.96 27.43 C82 27.23, 43.93 28.16, -0.65 27.55 M-0.57 27.77 C1.72 21.62, 0.87 14.44, -1.95 1.45 M-0.04 27.36 C-0.02 17.53, 0.92 10.58, -0.37 -0.78" stroke="#000000" stroke-width="1" fill="none"></path></g><g transform="translate(531.5 568.5) rotate(0 49 12.5)"><text x="0" y="18" font-family="Virgil, Segoe UI Emoji" font-size="20px" fill="#000000" text-anchor="start" style="white-space: pre;" direction="ltr">User Info</text></g><g transform="translate(21.5 524.5) rotate(0 44 12.5)"><text x="0" y="18" font-family="Virgil, Segoe UI Emoji" font-size="20px" fill="#000000" text-anchor="start" style="white-space: pre;" direction="ltr">Portfolio</text></g><g stroke-linecap="round" transform="translate(193.5 565.5) rotate(0 155.5 15)"><path d="M-1.4 0.89 C105.92 -2.18, 210.28 -1.63, 310.13 0.2 M0.44 -0.46 C112.74 -1.68, 224.78 -1.55, 311.22 0.15 M310.02 1.72 C308.75 7.03, 312.23 17.91, 309.87 29.66 M310.44 -0.57 C310.93 10.87, 311.73 22.1, 310.79 30.88 M311.64 29.66 C196.4 27.69, 82.32 29.34, 0.61 31.36 M310.53 30.4 C232.82 30.35, 156.19 30.73, 0.28 30.54 M-1.95 31.45 C0.2 20.54, 1.62 9.89, 0.72 0.12 M-0.37 29.22 C0.33 23.74, 0.52 16.88, 0.5 -0.45" stroke="#000000" stroke-width="1" fill="none"></path></g><g transform="translate(224.5 570.5) rotate(0 120 12.5)"><text x="0" y="18" font-family="Virgil, Segoe UI Emoji" font-size="20px" fill="#000000" text-anchor="start" style="white-space: pre;" direction="ltr">Home | Portfolio | Trade</text></g><g stroke-linecap="round" transform="translate(17.5 1057.5) rotate(0 318.5 224.5)"><path d="M0.76 0.2 C140.25 -1.29, 282.66 -1.09, 637.27 0.32 M-0.17 -0.35 C175.12 -2.54, 349.58 -2.36, 636.95 -0.02 M637.78 0.87 C637.2 132.25, 636.3 265.04, 637.6 449.37 M636.84 0.36 C636.22 158.45, 636.11 316.36, 636.78 449.25 M636.94 448.39 C476.63 448.83, 316.94 448.44, 0.24 448.47 M636.66 448.99 C426.7 448.61, 216.28 448.6, 0.28 448.64 M-0.45 449.29 C-1.13 355.33, -1.53 260.48, -0.6 0.81 M0.07 449.21 C-0.18 295.09, -0.72 141.09, 0.27 0.3" stroke="#000000" stroke-width="1" fill="none"></path></g><g stroke-linecap="round" transform="translate(20.5 1060.5) rotate(0 315.5 20)"><path d="M0.2 -0.78 C227.41 -1.81, 455.11 -2.13, 631.32 -0.2 M-0.35 0.33 C242.43 1.03, 485.27 0.99, 630.98 -0.02 M632.8 1.16 C630.64 10.63, 631.28 23.88, 631.75 41.05 M631.74 -0.18 C631.64 10.32, 631.06 21, 631.52 39.51 M630.39 39.81 C492.05 40.11, 352.34 40.05, -0.53 40.24 M630.99 40.17 C483.4 38.07, 335.61 38.14, -0.36 39.64 M0.6 41.05 C2.12 25.21, 1.47 8.74, 1.68 0.85 M0.43 40.47 C-0.11 26.61, -0.49 15.06, 0.63 -0.47" stroke="#000000" stroke-width="1" fill="none"></path></g><g transform="translate(35.5 1067.5) rotate(0 74 12.5)"><text x="0" y="18" font-family="Virgil, Segoe UI Emoji" font-size="20px" fill="#000000" text-anchor="start" style="white-space: pre;" direction="ltr">Trading Wheels</text></g><g stroke-linecap="round" transform="translate(529.5 1064.5) rotate(0 59 13.5)"><path d="M-0.23 1.47 C46.86 1.82, 93.99 0.64, 119.69 1.82 M-0.56 -0.04 C30.42 -1.08, 61.01 -1.01, 117.83 0.3 M117.52 -0.69 C118.4 11.5, 119 21.58, 117.36 27.46 M118.55 -0.41 C118.17 6.75, 118.72 13.93, 117.21 26.79 M118.91 27.75 C83.4 27.31, 47.62 27.33, -1.32 26.54 M118.49 27.55 C93.13 28.22, 66.39 26.61, 0.75 26.08 M1.76 27.22 C1.02 18.9, 1.6 14.15, 0.38 -0.56 M-0.22 26.36 C-0.72 19.1, 0.51 9.59, 0.92 0.58" stroke="#000000" stroke-width="1" fill="none"></path></g><g transform="translate(534.5 1067.5) rotate(0 49 12.5)"><text x="0" y="18" font-family="Virgil, Segoe UI Emoji" font-size="20px" fill="#000000" text-anchor="start" style="white-space: pre;" direction="ltr">User Info</text></g><g transform="translate(24.5 1023.5) rotate(0 31 12.5)"><text x="0" y="18" font-family="Virgil, Segoe UI Emoji" font-size="20px" fill="#000000" text-anchor="start" style="white-space: pre;" direction="ltr">Trade</text></g><g stroke-linecap="round" transform="translate(196.5 1064.5) rotate(0 155.5 15)"><path d="M0.48 0.57 C89.32 0.91, 180.67 -0.88, 309.77 1.16 M-0.09 -0.03 C75.96 0.11, 152.2 0.8, 311.64 0.42 M312.23 0.75 C311.94 7.65, 311.36 15.91, 312.48 29.65 M310.54 0.52 C310.39 9.85, 310.67 21.21, 310.23 29.77 M311.42 29.04 C204.04 28.98, 95.87 28.7, -0.03 30.62 M311.51 29.35 C201.79 31.62, 93.21 30.75, 0.22 30.37 M-1.25 31.68 C0.82 18.74, -0.6 7.01, 0.86 0.93 M0.56 30.63 C-0.28 22.57, 0.77 12.45, -0.93 -0.07" stroke="#000000" stroke-width="1" fill="none"></path></g><g transform="translate(227.5 1069.5) rotate(0 120 12.5)"><text x="0" y="18" font-family="Virgil, Segoe UI Emoji" font-size="20px" fill="#000000" text-anchor="start" style="white-space: pre;" direction="ltr">Home | Portfolio | Trade</text></g><g stroke-linecap="round" transform="translate(63 275) rotate(0 119.5 75)"><path d="M-1.49 1.53 C71.72 -2.34, 140.79 -1.81, 238.48 0.59 M-0.65 -0.48 C73.6 -0.07, 146.92 0.87, 238.61 -0.76 M237.03 -0.75 C238.8 48.44, 238.35 95.25, 238.77 151.8 M239.14 0.27 C237.98 56.86, 237.89 114.86, 238.9 149.38 M240.01 148.57 C187.86 149.14, 134.97 148.14, 0.51 151.57 M238.65 150.69 C181.22 147.66, 123.98 148.95, -0.74 150.27 M-1.93 148.75 C0.25 96.98, 0.21 41.41, -1.49 -1.69 M0.74 150.3 C0.3 109.98, -0.97 71.31, -0.91 0.72" stroke="#000000" stroke-width="1" fill="none"></path></g><g transform="translate(91 339) rotate(0 79.5 12.5)"><text x="0" y="18" font-family="Virgil, Segoe UI Emoji" font-size="20px" fill="#000000" text-anchor="start" style="white-space: pre;" direction="ltr">Login / Register</text></g><g stroke-linecap="round" transform="translate(61 628) rotate(0 267.5 30.5)"><path d="M0.38 0.18 C200.59 -2.16, 402.24 -2.1, 534.41 0.09 M-0.28 -0.23 C212.49 -1.42, 424.03 -1.92, 534.75 -0.28 M536.65 1.77 C535.26 13, 533.31 29.76, 536.66 62.96 M534.47 -0.3 C535.46 19.08, 533.47 38.89, 535.32 60.14 M535.33 61.62 C408.67 59.59, 280.57 60.5, -0.44 61.2 M534.69 61.23 C337.81 61.53, 140.51 61.43, -0.21 61.36 M-0.99 62.97 C0.06 43.14, 0.16 29.36, 1.61 1.78 M0.38 60.94 C-0.05 42.13, 0.76 23.39, -0.96 0.47" stroke="#000000" stroke-width="1" fill="none"></path></g><g transform="translate(78 646) rotate(0 239.5 12.5)"><text x="0" y="18" font-family="Virgil, Segoe UI Emoji" font-size="20px" fill="#000000" text-anchor="start" style="white-space: pre;" direction="ltr">Stock value   Cash      Total      +/- Change</text></g><g stroke-linecap="round" transform="translate(28 715) rotate(0 301 132.5)"><path d="M0.18 -0.43 C223.1 -1.79, 446.12 -1.63, 602.18 0.68 M0.12 -0.3 C149.12 -2.23, 298.5 -2.32, 602.22 -0.08 M602.07 1.48 C600.57 86.26, 598.57 172.77, 602.52 266.43 M602.41 -0.21 C602.68 67.1, 602.65 133.58, 602.28 265.16 M602.22 265.66 C439.35 262.76, 274.47 262.83, 0.77 264.64 M601.98 264.88 C429.46 265.93, 257.28 266.06, -0.37 264.99 M0.7 264.64 C1.2 177.77, 1.04 88.91, -1.27 -1.28 M0.78 265.46 C2.63 207.77, 2.6 150.34, -0.4 0.51" stroke="#000000" stroke-width="1" fill="none"></path></g><g transform="translate(199 850) rotate(0 85.5 12.5)"><text x="0" y="18" font-family="Virgil, Segoe UI Emoji" font-size="20px" fill="#000000" text-anchor="start" style="white-space: pre;" direction="ltr">Table of holdings</text></g><g stroke-linecap="round"><g transform="translate(44 772) rotate(0 284.2258354827389 -0.16480220519002842)"><path d="M0.37 0.79 C94.92 0.45, 472.47 -0.86, 567.1 -1.12 M-0.89 0.16 C94.05 -0.15, 474.61 -0.16, 569.34 -0.17" stroke="#000000" stroke-width="1" fill="none"></path></g></g><g transform="translate(41 735) rotate(0 202.5 12.5)"><text x="0" y="18" font-family="Virgil, Segoe UI Emoji" font-size="20px" fill="#000000" text-anchor="start" style="white-space: pre;" direction="ltr">Symbol  Desc  Shares  Price  Value  +/-</text></g><g transform="translate(67 1142) rotate(0 58 12.5)"><text x="0" y="18" font-family="Virgil, Segoe UI Emoji" font-size="20px" fill="#000000" text-anchor="start" style="white-space: pre;" direction="ltr">Search for </text></g><g stroke-linecap="round" transform="translate(191 1133) rotate(0 142 19.5)"><path d="M-1.22 1.23 C65.39 -0.2, 128.93 -0.08, 283.52 -0.07 M-0.19 0.14 C90.52 -1.42, 182.18 -0.66, 283.39 0.7 M283 1.21 C283.12 13.62, 282.68 32.85, 282.71 38.84 M284.05 -0.11 C283.59 14.04, 283.3 30.35, 283.16 38.96 M283.4 38.67 C221.89 40.66, 158.01 42.19, -1.4 40.33 M284.42 39.59 C172.86 40.11, 60.74 40.53, -0.59 38.73 M-0.34 39.18 C-1.11 27.54, 1.55 15.42, 0 0.36 M0.68 38.53 C0.49 25.51, -0.65 11.26, -0.63 -0.09" stroke="#000000" stroke-width="1" fill="none"></path></g><g stroke-linecap="round" transform="translate(95 1204) rotate(0 247 131)"><path d="M0.07 -0.33 C185.7 1.1, 371.13 0.34, 494.15 0.4 M-0.19 0.33 C188.87 -1.51, 377.44 -1.63, 493.96 -0.36 M493.81 -0.29 C493.98 54.71, 493.89 112.57, 492.92 260.59 M494.55 -0.49 C492.41 95.7, 493.34 190.65, 494.42 262.68 M494.31 261.66 C348.47 262.39, 204.18 262.44, -0.66 261.33 M493.97 261.78 C302.42 263.34, 110.46 264.02, -0.27 262.29 M1.56 261.45 C-1.4 156.84, -0.4 52.46, 0.61 0.13 M0.19 262.52 C-0.29 157.68, 0.3 53.26, -0.37 0" stroke="#000000" stroke-width="1" fill="none"></path></g><g stroke-linecap="round"><g transform="translate(90.77416451726111 1264.1648022051904) rotate(0 254.47117425254547 0.06014076219560138)"><path d="M0.11 0.7 C85.24 0.61, 425.44 -0.62, 510.24 -0.58 M-1.29 0.03 C83.75 0.08, 424 0.81, 509.41 0.65" stroke="#000000" stroke-width="1" fill="none"></path></g></g><g transform="translate(115 1229) rotate(0 165.5 12.5)"><text x="0" y="18" font-family="Virgil, Segoe UI Emoji" font-size="20px" fill="#000000" text-anchor="start" style="white-space: pre;" direction="ltr">Symbol  Desc  Price  Shares held</text></g><g stroke-linecap="round" transform="translate(513.25 779.75) rotate(0 24 17.5)"><path d="M0.44 -1.83 C14.57 -0.89, 29.41 1.23, 49.28 1.15 M-0.98 -0.9 C13.8 -0.08, 27.08 0.74, 48.18 -0.62 M46.21 1.49 C47.83 10.8, 49.18 20.27, 49.46 36.28 M48.92 -0.65 C47.42 11.02, 48.66 22.82, 48.02 35.36 M46.48 33.57 C32.42 33.9, 18.11 36.5, -1.28 36.33 M47.31 34.3 C29.52 34.41, 10.18 34.05, 0.7 34.54 M1.48 33.34 C1.38 22.52, -0.99 12.43, 0.92 -0.56 M-0.69 34.41 C0.47 24.97, -0.84 17.33, 0.93 -0.37" stroke="#000000" stroke-width="1" fill="none"></path></g><g transform="translate(518.75 784.75) rotate(0 18.5 12.5)"><text x="18.5" y="18" font-family="Virgil, Segoe UI Emoji" font-size="20px" fill="#000000" text-anchor="middle" style="white-space: pre;" direction="ltr">Buy</text></g><g stroke-linecap="round" transform="translate(570.75 779.25) rotate(0 24 17.5)"><path d="M0.26 -1.04 C13.76 1.53, 27.22 1.58, 47.61 -0.29 M0.35 0.06 C15.93 1.31, 31.69 -0.18, 47.74 0.64 M47.61 1.19 C48.64 9.19, 49.14 17.54, 48.38 34.56 M47.5 -0.15 C49.06 9.87, 48.34 19.12, 48.21 35.55 M47.82 33.89 C34.48 36.16, 17.88 35.99, 1.74 33.43 M48.11 34.83 C37.17 34.14, 28.33 34.21, 0.09 34.02 M1.04 33.34 C-1.59 26.8, 0.66 19.88, -0.72 0.98 M0.64 34.22 C-0.43 24.46, 1.17 11.9, -0.97 -0.55" stroke="#000000" stroke-width="1" fill="none"></path></g><g transform="translate(576.75 784.25) rotate(0 18 12.5)"><text x="18" y="18" font-family="Virgil, Segoe UI Emoji" font-size="20px" fill="#000000" text-anchor="middle" style="white-space: pre;" direction="ltr">Sell</text></g><g transform="translate(47 785) rotate(0 199 12.5)"><text x="0" y="18" font-family="Virgil, Segoe UI Emoji" font-size="20px" fill="#000000" text-anchor="start" style="white-space: pre;" direction="ltr">AAPL  Apple Inc. 50 $138 $5000 +5%</text></g><g transform="translate(115.5 1286.5) rotate(0 137.5 12.5)"><text x="0" y="18" font-family="Virgil, Segoe UI Emoji" font-size="20px" fill="#000000" text-anchor="start" style="white-space: pre;" direction="ltr">AAPL  Apple Inc. $138  50</text></g><g stroke-linecap="round" transform="translate(468.25 1275.75) rotate(0 24 17.5)"><path d="M-1.89 0.4 C15.52 -1.87, 32.41 -0.6, 46.65 0.38 M0.88 -0.09 C11.16 -0.91, 23.23 0.26, 47.75 0.01 M46.69 -1.01 C48.1 14.61, 47.59 24.3, 47.35 33.61 M47.85 0.59 C48.33 8.14, 47.49 16.35, 48.58 35.92 M46.52 33.89 C31.51 35.9, 15.17 36.68, 1.37 34.25 M48.25 35.96 C32.11 34.64, 16.33 34.67, -0.91 35.58 M-1.59 36.16 C1.18 28.28, 1.45 18.09, 0.88 -1.31 M-0.43 34.56 C-0.59 26.46, 0.81 17.37, 0.95 -0.26" stroke="#000000" stroke-width="1" fill="none"></path></g><g transform="translate(473.75 1280.75) rotate(0 18.5 12.5)"><text x="18.5" y="18" font-family="Virgil, Segoe UI Emoji" font-size="20px" fill="#000000" text-anchor="middle" style="white-space: pre;" direction="ltr">Buy</text></g><g stroke-linecap="round" transform="translate(525.75 1275.25) rotate(0 24 17.5)"><path d="M0.05 -1.94 C15.14 -0.77, 25.98 0.28, 46.93 -0.84 M-0.66 -0.57 C17.44 0.64, 35.48 0.06, 48.68 0.87 M47.8 1.73 C47.05 9.19, 47.12 19.89, 46.87 35.34 M48.27 -0.38 C47.37 9.92, 48.52 22.14, 48.37 34.11 M47.68 35.89 C33.03 36.41, 20.39 33.99, 0.79 33.31 M48.42 35.05 C38.66 35.55, 26.52 36.04, -0.77 35.21 M1.26 36.09 C1.8 26.6, 1.15 19.45, -1.22 -0.24 M-0.64 34.81 C0.92 25.06, 1.11 16.69, 0.94 0.09" stroke="#000000" stroke-width="1" fill="none"></path></g><g transform="translate(531.75 1280.25) rotate(0 18 12.5)"><text x="18" y="18" font-family="Virgil, Segoe UI Emoji" font-size="20px" fill="#000000" text-anchor="middle" style="white-space: pre;" direction="ltr">Sell</text></g><g stroke-linecap="round" transform="translate(456 1266) rotate(0 62.5 30.5)"><path d="M15.25 0 M15.25 0 C38.39 -0.85, 65.1 2.88, 109.75 0 M15.25 0 C47.53 -0.73, 82.33 -1.79, 109.75 0 M109.75 0 C120.06 0.97, 123.84 4.1, 125 15.25 M109.75 0 C121.26 1.79, 123.34 7.21, 125 15.25 M125 15.25 C123.45 25.71, 124.09 35.53, 125 45.75 M125 15.25 C124.63 25.75, 124.9 37.88, 125 45.75 M125 45.75 C125.79 56.18, 118.15 62.82, 109.75 61 M125 45.75 C127.04 54.12, 119.8 60.8, 109.75 61 M109.75 61 C78.28 63.47, 46.61 59.99, 15.25 61 M109.75 61 C83.58 61.26, 55.35 60.98, 15.25 61 M15.25 61 C4.37 62.13, -0.93 56.92, 0 45.75 M15.25 61 C5.49 60.29, -1.71 57.8, 0 45.75 M0 45.75 C-1.62 35.76, -0.91 28.33, 0 15.25 M0 45.75 C-0.2 37.9, 1.22 29.24, 0 15.25 M0 15.25 C-1.9 6.8, 4.97 1.9, 15.25 0 M0 15.25 C1.66 2.81, 6.07 0.3, 15.25 0" stroke="#e67700" stroke-width="1" fill="none"></path></g><g stroke-linecap="round" transform="translate(503.5 767.5) rotate(0 60.5 30.5)"><path d="M15.25 0 M15.25 0 C48.72 -1.31, 83.2 0.07, 105.75 0 M15.25 0 C46.88 1.69, 75.91 0.75, 105.75 0 M105.75 0 C115.74 0.51, 120.86 6.35, 121 15.25 M105.75 0 C115.1 2.16, 119.15 3.24, 121 15.25 M121 15.25 C122.09 23.91, 119.11 31.97, 121 45.75 M121 15.25 C121.67 23.49, 120.87 30.63, 121 45.75 M121 45.75 C122.64 55.69, 116.76 62.58, 105.75 61 M121 45.75 C119.28 54.55, 115.02 61.24, 105.75 61 M105.75 61 C80.5 62.63, 58.91 61.76, 15.25 61 M105.75 61 C88.16 61.67, 67.68 61.38, 15.25 61 M15.25 61 C5.34 61.52, 0.09 57.33, 0 45.75 M15.25 61 C6.19 60.39, -1.15 55.75, 0 45.75 M0 45.75 C-1.83 35.74, 1.63 21.29, 0 15.25 M0 45.75 C-0.31 34.88, 0.59 23.87, 0 15.25 M0 15.25 C-0.46 4.67, 6.63 0.75, 15.25 0 M0 15.25 C-0.27 3.8, 3.97 1.61, 15.25 0" stroke="#e67700" stroke-width="1" fill="none"></path></g><g stroke-linecap="round"><g transform="translate(581 1279) rotate(0 92.41199877852574 -196.53995360098781)"><path d="M0.69 -0.13 C31.68 -65.79, 154.62 -327.4, 185.24 -392.95 M-0.41 -1.24 C30.5 -66.18, 153.8 -326.2, 184.41 -391.39" stroke="#e67700" stroke-width="1" fill="none"></path></g><g transform="translate(581 1279) rotate(0 92.41199877852574 -196.53995360098781)"><path d="M181.43 -361.12 C182.15 -369.82, 182.01 -377, 183.51 -392.11 M181.86 -362.5 C182.13 -370.6, 182.87 -380.68, 184.96 -391.53" stroke="#e67700" stroke-width="1" fill="none"></path></g><g transform="translate(581 1279) rotate(0 92.41199877852574 -196.53995360098781)"><path d="M162.88 -369.88 C168.16 -376.57, 172.51 -381.63, 183.51 -392.11 M163.31 -371.27 C169.82 -376.52, 176.72 -383.69, 184.96 -391.53" stroke="#e67700" stroke-width="1" fill="none"></path></g></g><g stroke-linecap="round"><g transform="translate(625 790) rotate(0 68.20180717743938 38.14566046828406)"><path d="M-0.95 0.57 C22.11 13.22, 114.16 62.7, 137.35 75.3 M0.76 -0.18 C23.77 12.66, 113.71 63.51, 136.59 76.47" stroke="#e67700" stroke-width="1" fill="none"></path></g><g transform="translate(625 790) rotate(0 68.20180717743938 38.14566046828406)"><path d="M107.94 72.11 C112.29 74.82, 120.26 72.94, 135.97 78.21 M107.12 70.53 C114.69 73.09, 121.41 74.41, 136.53 76.87" stroke="#e67700" stroke-width="1" fill="none"></path></g><g transform="translate(625 790) rotate(0 68.20180717743938 38.14566046828406)"><path d="M118.05 54.25 C120.09 60.79, 125.85 62.82, 135.97 78.21 M117.23 52.67 C122.16 59.57, 126.4 65.26, 136.53 76.87" stroke="#e67700" stroke-width="1" fill="none"></path></g></g><g transform="translate(775 865) rotate(0 64.5 12.5)"><text x="0" y="18" font-family="Virgil, Segoe UI Emoji" font-size="20px" fill="#000000" text-anchor="start" style="white-space: pre;" direction="ltr">Modal pop-up</text></g><g stroke-linecap="round" transform="translate(61 877) rotate(0 266 44)"><path d="M-0.6 0.58 C167.09 0.72, 331.93 1.13, 532.79 0.5 M0.31 0.15 C190.26 0.34, 381.16 0.36, 531.97 -0.22 M533.41 -0.29 C534.13 31.07, 531.22 63.16, 532.11 89.04 M531.02 -0.74 C530.63 18.31, 531.95 38.78, 531.88 87.63 M531.33 87.58 C326.84 89.84, 121.55 89.73, -0.65 87.69 M532.05 88.21 C346.08 87.53, 159.68 87.19, 0.33 88.11 M0.16 88.94 C-0.51 69.26, 1.76 48.81, 1.62 1.46 M-0.49 87.33 C0.5 56.3, -0.67 26.31, 0.16 -0.09" stroke="#000000" stroke-width="1" fill="none"></path></g><g stroke-linecap="round"><g transform="translate(90 949) rotate(0 28.31334205903113 -15.465468508377626)"><path d="M-0.81 0.23 C8.58 -4.86, 47.48 -26.16, 57.43 -31.16 M0.97 -0.69 C10.06 -5.63, 46.58 -25.62, 56.19 -30.24" stroke="#087f5b" stroke-width="1" fill="none"></path></g></g><g stroke-linecap="round"><g transform="translate(145 919) rotate(0 25.503175032511365 9.230452045146308)"><path d="M-0.99 0.52 C7.63 3.4, 43.33 14.91, 52 17.81 M0.68 -0.26 C9.21 2.68, 43.3 15.57, 51.58 18.72" stroke="#087f5b" stroke-width="1" fill="none"></path></g></g><g stroke-linecap="round"><g transform="translate(199 937) rotate(0 46.490918742483444 -15.425430282112302)"><path d="M-1.1 -0.73 C14.11 -5.79, 76.37 -25.77, 91.93 -30.84 M0.53 1.5 C16.04 -3.82, 78.38 -26.6, 94.08 -32.35" stroke="#087f5b" stroke-width="1" fill="none"></path></g></g><g stroke-linecap="round"><g transform="translate(295 907) rotate(0 43.693008335148875 12.035668816510565)"><path d="M-0.17 0.29 C14.82 4.38, 74.13 19.66, 89.11 23.43 M-1.72 -0.6 C13.19 3.73, 73.05 20.63, 88.22 24.68" stroke="#087f5b" stroke-width="1" fill="none"></path></g></g><g stroke-linecap="round"><g transform="translate(385 929) rotate(0 42.43206299580635 -16.742955205803753)"><path d="M-1.17 -0.62 C13.35 -6.38, 71.32 -29.69, 86.03 -35.15 M0.42 1.67 C14.88 -3.93, 70.68 -28.03, 85.1 -34.22" stroke="#087f5b" stroke-width="1" fill="none"></path></g></g><g stroke-linecap="round"><g transform="translate(465 895) rotate(0 45.473929042872044 -2.7663851766940297)"><path d="M0.16 0.11 C15.02 -0.35, 74.75 -3.12, 89.98 -3.68 M-1.21 -0.88 C13.93 -1.64, 76.78 -4.91, 92.16 -5.64" stroke="#087f5b" stroke-width="1" fill="none"></path></g></g><g stroke-linecap="round" transform="translate(120 1373) rotate(0 219 36.22556390977445)"><path d="M0.32 -0.53 C109.27 0.24, 218.75 1.35, 437.61 0.62 M-0.11 -0.17 C93.61 -1.01, 187.03 -1.02, 438.23 0.45 M439.02 -1.07 C438.99 23.01, 438.54 43.05, 437.5 72.34 M437.75 0.12 C437 28.69, 437.29 55.83, 437.61 72.76 M437.02 73.13 C298.49 74.95, 160.34 74.19, 0.45 71.87 M437.94 72.95 C290.13 71.37, 141.36 71.49, 0.09 72.26 M1.63 72.78 C-0.57 50, -1.41 22.05, 1.91 -1.74 M-0.2 73.04 C-0.52 44.14, 0.28 16.19, -0.64 0.01" stroke="#000000" stroke-width="1" fill="none"></path></g><g stroke-linecap="round"><g transform="translate(143.87593984962405 1432.2781954887218) rotate(0 23.365446412963422 -11.778305104822039)"><path d="M0.39 -0.63 C8.31 -4.77, 39.72 -21.34, 47.6 -25.21 M-0.87 1.66 C6.88 -2.29, 38.61 -19.37, 46.57 -23.95" stroke="#087f5b" stroke-width="1" fill="none"></path></g></g><g stroke-linecap="round"><g transform="translate(189.15789473684208 1407.578947368421) rotate(0 20.42330770762848 7.901483506291584)"><path d="M-0.63 -0.15 C6.35 2.38, 34.24 13.02, 41.47 15.58 M1.24 -1.28 C8.05 1.42, 33.39 14.16, 40.26 17.08" stroke="#087f5b" stroke-width="1" fill="none"></path></g></g><g stroke-linecap="round"><g transform="translate(233.61654135338347 1422.3984962406016) rotate(0 37.40558060672737 -13.870610002978538)"><path d="M-0.15 -0.51 C12.53 -4.66, 63.79 -21.35, 76.5 -25.53 M-1.69 -1.83 C10.8 -6.26, 62.72 -22.94, 75.52 -27.23" stroke="#087f5b" stroke-width="1" fill="none"></path></g></g><g stroke-linecap="round"><g transform="translate(312.6541353383459 1397.6992481203008) rotate(0 36.7871410958889 9.72237552284082)"><path d="M-0.51 -0.07 C11.94 3.18, 61.67 16.17, 74.09 19.3 M1.42 -1.15 C13.84 2.27, 61.53 17.15, 73.57 20.59" stroke="#087f5b" stroke-width="1" fill="none"></path></g></g><g stroke-linecap="round"><g transform="translate(386.7518796992481 1415.812030075188) rotate(0 34.391099185700625 -14.087885709760258)"><path d="M-0.07 0.81 C11.68 -3.64, 58.7 -22.55, 70.34 -27.25 M-1.56 0.2 C10 -4.56, 56.87 -24.05, 69.15 -28.99" stroke="#087f5b" stroke-width="1" fill="none"></path></g></g><g stroke-linecap="round"><g transform="translate(452.61654135338347 1387.8195488721803) rotate(0 37.72059699116812 -2.4005960756365994)"><path d="M0.81 -0.46 C13.51 -1.18, 63.21 -3.92, 75.66 -4.34 M-0.22 -1.75 C12.43 -2.35, 62.56 -3.39, 75.1 -3.35" stroke="#087f5b" stroke-width="1" fill="none"></path></g></g><g transform="translate(823 65) rotate(0 164 175)"><text x="0" y="18" font-family="Virgil, Segoe UI Emoji" font-size="20px" fill="#343a40" text-anchor="start" style="white-space: pre;" direction="ltr">Database Tables</text><text x="0" y="43" font-family="Virgil, Segoe UI Emoji" font-size="20px" fill="#343a40" text-anchor="start" style="white-space: pre;" direction="ltr">- Users</text><text x="0" y="68" font-family="Virgil, Segoe UI Emoji" font-size="20px" fill="#343a40" text-anchor="start" style="white-space: pre;" direction="ltr">    - id</text><text x="0" y="93" font-family="Virgil, Segoe UI Emoji" font-size="20px" fill="#343a40" text-anchor="start" style="white-space: pre;" direction="ltr">    - username</text><text x="0" y="118" font-family="Virgil, Segoe UI Emoji" font-size="20px" fill="#343a40" text-anchor="start" style="white-space: pre;" direction="ltr">    - password hash</text><text x="0" y="143" font-family="Virgil, Segoe UI Emoji" font-size="20px" fill="#343a40" text-anchor="start" style="white-space: pre;" direction="ltr">    - last login</text><text x="0" y="168" font-family="Virgil, Segoe UI Emoji" font-size="20px" fill="#343a40" text-anchor="start" style="white-space: pre;" direction="ltr">    - last logout</text><text x="0" y="193" font-family="Virgil, Segoe UI Emoji" font-size="20px" fill="#343a40" text-anchor="start" style="white-space: pre;" direction="ltr">- Trades</text><text x="0" y="218" font-family="Virgil, Segoe UI Emoji" font-size="20px" fill="#343a40" text-anchor="start" style="white-space: pre;" direction="ltr">    - id</text><text x="0" y="243" font-family="Virgil, Segoe UI Emoji" font-size="20px" fill="#343a40" text-anchor="start" style="white-space: pre;" direction="ltr">    - user.id</text><text x="0" y="268" font-family="Virgil, Segoe UI Emoji" font-size="20px" fill="#343a40" text-anchor="start" style="white-space: pre;" direction="ltr">    - symbol</text><text x="0" y="293" font-family="Virgil, Segoe UI Emoji" font-size="20px" fill="#343a40" text-anchor="start" style="white-space: pre;" direction="ltr">    - shares (+ buy, - sell)</text><text x="0" y="318" font-family="Virgil, Segoe UI Emoji" font-size="20px" fill="#343a40" text-anchor="start" style="white-space: pre;" direction="ltr">    - price/share ($1 for $CASH)</text><text x="0" y="343" font-family="Virgil, Segoe UI Emoji" font-size="20px" fill="#343a40" text-anchor="start" style="white-space: pre;" direction="ltr">    - date</text></g><g stroke-linecap="round" transform="translate(691 626) rotate(0 87.5 63.5)"><path d="M0.28 0.93 C54.31 2.92, 105.25 0.01, 173.22 -0.28 M0.91 0.2 C63.75 -0.95, 128.05 -0.83, 175.18 -0.17 M175.99 1.87 C176.45 49.03, 173.04 95.54, 176.71 128.61 M175.69 0.68 C176.28 37.43, 176.25 75.81, 175.93 127.52 M175.83 125.04 C120.09 125.14, 62.24 126.36, -0.22 126.18 M174.27 126.31 C137.09 128.38, 100.08 127.91, -0.98 126.86 M0.61 125.69 C0.21 89.78, -1.24 53.05, 0.93 -0.17 M-0.28 126.93 C-0.4 91.17, 0.43 57.84, 0.56 -0.04" stroke="#d9480f" stroke-width="1" fill="none"></path></g><g transform="translate(696 639.5) rotate(0 81 50)"><text x="81" y="18" font-family="Virgil, Segoe UI Emoji" font-size="20px" fill="#d9480f" text-anchor="middle" style="white-space: pre;" direction="ltr">Include page </text><text x="81" y="43" font-family="Virgil, Segoe UI Emoji" font-size="20px" fill="#d9480f" text-anchor="middle" style="white-space: pre;" direction="ltr">with searchable </text><text x="81" y="68" font-family="Virgil, Segoe UI Emoji" font-size="20px" fill="#d9480f" text-anchor="middle" style="white-space: pre;" direction="ltr">report of user's</text><text x="81" y="93" font-family="Virgil, Segoe UI Emoji" font-size="20px" fill="#d9480f" text-anchor="middle" style="white-space: pre;" direction="ltr">trades?</text></g><g stroke-linecap="round" transform="translate(795 54) rotate(0 192.5 194)"><path d="M0.29 0.99 C103.6 0.2, 208.61 0.8, 384.36 -0.84 M0.23 -0.43 C118.95 2.15, 236.78 1.17, 385.59 -0.16 M385.83 1.02 C386.23 150.85, 386.04 300.94, 383.87 388.55 M384.45 0.42 C384.72 80, 384.84 160.67, 384.57 388.25 M386.1 387.16 C261.25 388.79, 135.69 388.81, 0.95 388.02 M384.89 388.32 C292.19 386.33, 198.26 386.61, 0.5 388.29 M0.53 387.06 C-1.77 272.49, -2.04 157.63, 0.6 0.81 M0.57 388.28 C0.13 244.17, -0.28 101.09, -0.45 0.26" stroke="#2b8a3e" stroke-width="1" fill="none"></path></g><g transform="translate(987 482) rotate(0 196.5 162.5)"><text x="0" y="18" font-family="Virgil, Segoe UI Emoji" font-size="20px" fill="#0b7285" text-anchor="start" style="white-space: pre;" direction="ltr">Backend functions:</text><text x="0" y="43" font-family="Virgil, Segoe UI Emoji" font-size="20px" fill="#0b7285" text-anchor="start" style="white-space: pre;" direction="ltr">- Log in / out</text><text x="0" y="68" font-family="Virgil, Segoe UI Emoji" font-size="20px" fill="#0b7285" text-anchor="start" style="white-space: pre;" direction="ltr">- Register new user</text><text x="0" y="93" font-family="Virgil, Segoe UI Emoji" font-size="20px" fill="#0b7285" text-anchor="start" style="white-space: pre;" direction="ltr">    - Initial trade $CASH 100,000</text><text x="0" y="118" font-family="Virgil, Segoe UI Emoji" font-size="20px" fill="#0b7285" text-anchor="start" style="white-space: pre;" direction="ltr">- Process trades</text><text x="0" y="143" font-family="Virgil, Segoe UI Emoji" font-size="20px" fill="#0b7285" text-anchor="start" style="white-space: pre;" direction="ltr">    - Buy and sell</text><text x="0" y="168" font-family="Virgil, Segoe UI Emoji" font-size="20px" fill="#0b7285" text-anchor="start" style="white-space: pre;" direction="ltr">    - Balance with $CASH transactions</text><text x="0" y="193" font-family="Virgil, Segoe UI Emoji" font-size="20px" fill="#0b7285" text-anchor="start" style="white-space: pre;" direction="ltr">- Generate portfolio</text><text x="0" y="218" font-family="Virgil, Segoe UI Emoji" font-size="20px" fill="#0b7285" text-anchor="start" style="white-space: pre;" direction="ltr">    - Array of positions</text><text x="0" y="243" font-family="Virgil, Segoe UI Emoji" font-size="20px" fill="#0b7285" text-anchor="start" style="white-space: pre;" direction="ltr">    - Calculate gain/loss</text><text x="0" y="268" font-family="Virgil, Segoe UI Emoji" font-size="20px" fill="#0b7285" text-anchor="start" style="white-space: pre;" direction="ltr">- Fetch stock data</text><text x="0" y="293" font-family="Virgil, Segoe UI Emoji" font-size="20px" fill="#0b7285" text-anchor="start" style="white-space: pre;" direction="ltr"></text><text x="0" y="318" font-family="Virgil, Segoe UI Emoji" font-size="20px" fill="#0b7285" text-anchor="start" style="white-space: pre;" direction="ltr"></text></g></svg>